# xmcd CD database file
#
# Track frame offsets:
#	150
#	13910
#	30805
#	49230
#	66658
#	85484
#	102749
#	117974
#	137825
#	156191
#
# Disc length: 2351 seconds
#
# Revision: 0
# Processed by: cddbd v1.5.1PL2 Copyright (c) Steve Scherf et al.
# Submitted via: CDex 1.51
#
DISCID=8d092d0a
DTITLE=Luka Nizetic - Premijera
DYEAR=2005
DGENRE=Narodne
TTITLE0=Proljece (feat Klapa Nostalgija)
TTITLE1=Ljubav (Potopljeni svijet)
TTITLE2=Vise te ne volim
TTITLE3=Bubreg
TTITLE4=Ti si meni sve
TTITLE5=Vrag mi te dao na dar
TTITLE6=Ne krivi me
TTITLE7=Ponekad pozelim
TTITLE8=Tebi pjevam
TTITLE9=Odsanjaj (feat Matija Dedic)
EXTD=YEAR: 2005
EXTT0=
EXTT1=
EXTT2=
EXTT3=
EXTT4=
EXTT5=
EXTT6=
EXTT7=
EXTT8=
EXTT9=
PLAYORDER=
